<svg data-v-0dd9719b="" version="1.0" xmlns="http://www.w3.org/2000/svg" xmlns:xlink="http://www.w3.org/1999/xlink" width="100%" height="100%" viewBox="0 0 340.000000 250.000000" preserveAspectRatio="xMidYMid meet" color-interpolation-filters="sRGB" style="margin: auto;"> <rect data-v-0dd9719b="" x="0" y="0" width="100%" height="100%" fill="#ffffff" fill-opacity="1" class="background"></rect> <rect data-v-0dd9719b="" x="0" y="0" width="100%" height="100%" fill="url(#watermark)" fill-opacity="1" class="watermarklayer"></rect> <g data-v-0dd9719b="" fill="#a18cd1" class="icon-text-wrapper icon-svg-group iconsvg" transform="translate(49.36499786376953,95.05420112609863)"><g class="iconsvg-imagesvg" transform="translate(0,0)" mask="url(#a0f03fa9-7654-4036-b724-4a89cd1188ee)"><g><rect fill="#a18cd1" fill-opacity="0" stroke-width="2" x="0" y="0" width="60" height="59.89159621085834" class="image-rect"></rect> <svg filter="url(#colors5052307975)" x="0" y="0" width="60" height="59.89159621085834" filtersec="colorsf6290310847" class="image-svg-svg primary" style="overflow: visible;"><svg xmlns="http://www.w3.org/2000/svg" viewBox="-0.6000000000000001 -0.6000000000000001 59.5 59.4"><path d="M36.4 21.8c4 4 4 10.5 0 14.5s-10.5 4-14.5 0-4-10.5 0-14.5m14.5 0L22.5 7.9 1.4 29.1l27.7 27.7 27.7-27.7L29.1 1.4m7.3 34.9c4-4 4-10.5 0-14.5s-10.5-4-14.5 0-4 10.5 0 14.5m0 0l13.9 13.9 21.1-21.1L29.2 1.4 1.4 29.1l27.7 27.7m-7.2-35L8 35.7m28.4.6l13.9-13.9" fill="none" stroke="#282828" stroke-width="2" stroke-miterlimit="10"></path></svg></svg> <defs><filter id="colors5052307975"><feColorMatrix type="matrix" values="0 0 0 0 0.62890625  0 0 0 0 0.546875  0 0 0 0 0.81640625  0 0 0 1 0" class="icon-fecolormatrix"></feColorMatrix></filter> <filter id="colorsf6290310847"><feColorMatrix type="matrix" values="0 0 0 0 0.99609375  0 0 0 0 0.99609375  0 0 0 0 0.99609375  0 0 0 1 0" class="icon-fecolormatrix"></feColorMatrix></filter> <filter id="colorsb7481030970"><feColorMatrix type="matrix" values="0 0 0 0 0  0 0 0 0 0  0 0 0 0 0  0 0 0 1 0" class="icon-fecolormatrix"></feColorMatrix></filter></defs></g><rect v-gra="id" width="72" height="71.89159774780273" transform="translate(-6, -6)" style="pointer-events:none;" fill="url(#Q87DmIyWRuPr0YIkCFABB)"></rect></g> <g transform="translate(67,12.390800476074219)"><g data-gra="path-name" fill-rule="" class="tp-name iconsvg-namesvg" fill="url(#ebd08906-e208-484e-8af5-e556c1e01a53)"><g transform="scale(1)"><g><path d="M18.94 0.44Q13.94 0.44 10.27-1.7 6.6-3.84 4.61-7.82 2.62-11.8 2.62-17.14L2.62-17.14Q2.62-22.48 4.59-26.44 6.56-30.4 10.25-32.53 13.94-34.67 18.94-34.67L18.94-34.67Q23.94-34.67 27.6-32.53 31.27-30.4 33.24-26.44 35.2-22.48 35.2-17.14L35.2-17.14Q35.2-11.8 33.21-7.82 31.22-3.84 27.56-1.7 23.89 0.44 18.94 0.44L18.94 0.44ZM18.94-4.56Q23.65-4.56 26.29-7.82 28.94-11.07 28.94-17.14L28.94-17.14Q28.94-23.21 26.29-26.44 23.65-29.67 18.94-29.67L18.94-29.67Q14.18-29.67 11.53-26.44 8.89-23.21 8.89-17.14L8.89-17.14Q8.89-11.07 11.53-7.82 14.18-4.56 18.94-4.56L18.94-4.56ZM59.72-24.23Q61.13-24.23 61.96-23.45 62.78-22.68 62.78-21.36L62.78-21.36 62.78-2.52Q62.78-1.26 61.93-0.49 61.08 0.29 59.72 0.29L59.72 0.29Q58.41 0.29 57.64-0.44 56.86-1.17 56.86-2.43L56.86-2.43 56.86-3.64Q55.74-1.7 53.85-0.66 51.96 0.39 49.58 0.39L49.58 0.39Q40.84 0.39 40.84-9.42L40.84-9.42 40.84-21.36Q40.84-22.68 41.66-23.45 42.49-24.23 43.85-24.23L43.85-24.23Q45.25-24.23 46.08-23.45 46.91-22.68 46.91-21.36L46.91-21.36 46.91-9.37Q46.91-6.85 47.93-5.63 48.95-4.42 51.13-4.42L51.13-4.42Q53.66-4.42 55.18-6.09 56.71-7.77 56.71-10.54L56.71-10.54 56.71-21.36Q56.71-22.68 57.54-23.45 58.37-24.23 59.72-24.23L59.72-24.23ZM81.43-4.22Q83.86-4.08 83.86-2.04L83.86-2.04Q83.86-0.87 82.91-0.27 81.96 0.34 80.22 0.24L80.22 0.24 78.9 0.15Q70.75-0.44 70.75-8.59L70.75-8.59 70.75-19.18 68.32-19.18Q67.01-19.18 66.3-19.76 65.6-20.35 65.6-21.46L65.6-21.46Q65.6-22.58 66.3-23.16 67.01-23.74 68.32-23.74L68.32-23.74 70.75-23.74 70.75-28.21Q70.75-29.52 71.57-30.3 72.4-31.08 73.81-31.08L73.81-31.08Q75.17-31.08 75.99-30.3 76.82-29.52 76.82-28.21L76.82-28.21 76.82-23.74 80.94-23.74Q82.26-23.74 82.96-23.16 83.66-22.58 83.66-21.46L83.66-21.46Q83.66-20.35 82.96-19.76 82.26-19.18 80.94-19.18L80.94-19.18 76.82-19.18 76.82-8.16Q76.82-4.56 80.12-4.32L80.12-4.32 81.43-4.22ZM90.02 0.29Q88.71 0.29 87.86-0.46 87.01-1.21 87.01-2.62L87.01-2.62 87.01-31.61Q87.01-33.02 87.86-33.75 88.71-34.48 90.02-34.48L90.02-34.48Q91.34-34.48 92.21-33.75 93.08-33.02 93.08-31.61L93.08-31.61 93.08-2.62Q93.08-1.21 92.21-0.46 91.34 0.29 90.02 0.29L90.02 0.29ZM109.64-24.33Q114.59-24.33 117-21.87 119.4-19.42 119.4-14.42L119.4-14.42 119.4-2.57Q119.4-1.26 118.62-0.51 117.85 0.24 116.49 0.24L116.49 0.24Q115.23 0.24 114.42-0.53 113.62-1.31 113.62-2.57L113.62-2.57 113.62-3.64Q112.8-1.75 111.03-0.68 109.25 0.39 106.92 0.39L106.92 0.39Q104.54 0.39 102.6-0.58 100.66-1.55 99.54-3.25 98.42-4.95 98.42-7.04L98.42-7.04Q98.42-9.66 99.76-11.17 101.1-12.67 104.11-13.35 107.12-14.03 112.41-14.03L112.41-14.03 113.62-14.03 113.62-15.15Q113.62-17.53 112.6-18.62 111.58-19.71 109.3-19.71L109.3-19.71Q107.89-19.71 106.44-19.3 104.98-18.89 102.99-18.11L102.99-18.11Q101.73-17.48 101.14-17.48L101.14-17.48Q100.27-17.48 99.71-18.11 99.15-18.74 99.15-19.76L99.15-19.76Q99.15-20.59 99.57-21.2 99.98-21.8 100.95-22.34L100.95-22.34Q102.65-23.26 105-23.79 107.36-24.33 109.64-24.33L109.64-24.33ZM108.14-3.98Q110.56-3.98 112.09-5.61 113.62-7.23 113.62-9.81L113.62-9.81 113.62-10.83 112.75-10.83Q109.5-10.83 107.7-10.54 105.9-10.25 105.13-9.52 104.35-8.79 104.35-7.53L104.35-7.53Q104.35-5.97 105.44-4.98 106.53-3.98 108.14-3.98L108.14-3.98ZM139.36-24.33Q143.63-24.33 145.72-21.9 147.81-19.47 147.81-14.57L147.81-14.57 147.81-2.62Q147.81-1.26 147.01-0.49 146.2 0.29 144.8 0.29L144.8 0.29Q143.39 0.29 142.56-0.49 141.74-1.26 141.74-2.62L141.74-2.62 141.74-14.23Q141.74-16.99 140.69-18.26 139.65-19.52 137.42-19.52L137.42-19.52Q134.79-19.52 133.22-17.87 131.64-16.22 131.64-13.45L131.64-13.45 131.64-2.62Q131.64-1.26 130.81-0.49 129.99 0.29 128.58 0.29L128.58 0.29Q127.17 0.29 126.37-0.49 125.57-1.26 125.57-2.62L125.57-2.62 125.57-21.41Q125.57-22.68 126.39-23.45 127.22-24.23 128.63-24.23L128.63-24.23Q129.89-24.23 130.69-23.48 131.49-22.72 131.49-21.51L131.49-21.51 131.49-20.2Q132.71-22.19 134.75-23.26 136.78-24.33 139.36-24.33L139.36-24.33ZM173.78-34.48Q175.14-34.48 176.02-33.7 176.89-32.92 176.89-31.66L176.89-31.66 176.89-2.62Q176.89-1.31 176.07-0.53 175.24 0.24 173.88 0.24L173.88 0.24Q172.52 0.24 171.7-0.53 170.87-1.31 170.87-2.62L170.87-2.62 170.87-3.84Q169.8-1.85 167.79-0.73 165.77 0.39 163.2 0.39L163.2 0.39Q160.14 0.39 157.74-1.17 155.33-2.72 154-5.56 152.66-8.4 152.66-12.09L152.66-12.09Q152.66-15.78 154-18.55 155.33-21.32 157.71-22.82 160.09-24.33 163.2-24.33L163.2-24.33Q165.77-24.33 167.76-23.26 169.75-22.19 170.82-20.25L170.82-20.25 170.82-31.76Q170.82-32.97 171.62-33.72 172.43-34.48 173.78-34.48L173.78-34.48ZM164.8-4.32Q167.72-4.32 169.29-6.31 170.87-8.3 170.87-11.99L170.87-11.99Q170.87-15.68 169.29-17.65 167.72-19.62 164.85-19.62L164.85-19.62Q161.94-19.62 160.33-17.67 158.73-15.73 158.73-12.09L158.73-12.09Q158.73-8.4 160.33-6.36 161.94-4.32 164.8-4.32L164.8-4.32Z" transform="translate(-2.619999885559082, 34.66999816894531)"></path></g> <!----> <!----> <!----> <!----> <!----> <!----> <!----></g></g> <!----></g></g><defs v-gra="od"><linearGradient x1="0" y1="1" x2="0" y2="0" id="ebd08906-e208-484e-8af5-e556c1e01a53"><stop offset="0%" stop-color="#a18cd1"></stop><stop offset="100%" stop-color="#fbc2eb"></stop></linearGradient><filter id="42443b3f1de60f6b6fd3b6a9844b4764" filterUnits="objectBoundingBox"><feColorMatrix type="matrix" values="0 0 0 0 0.99609375  0 0 0 0 0.99609375  0 0 0 0 0.99609375  0 0 0 1 0"></feColorMatrix></filter></defs><defs v-gra="id"><filter id="5678a171-abcf-4145-bd4d-f762dfc74e78" filterUnits="userSpaceOnUse"><feColorMatrix type="matrix" values="0 0 0 0 0.99609375  0 0 0 0 0.99609375  0 0 0 0 0.99609375  0 0 0 1 0"></feColorMatrix></filter><linearGradient x1="0" y1="1" x2="0" y2="0" id="Q87DmIyWRuPr0YIkCFABB"><stop offset="0%" stop-color="#a18cd1"></stop><stop offset="100%" stop-color="#fbc2eb"></stop></linearGradient><filter id="42443b3f1de60f6b6fd3b6a9844b4764" filterUnits="objectBoundingBox"><feColorMatrix type="matrix" values="0 0 0 0 0.99609375  0 0 0 0 0.99609375  0 0 0 0 0.99609375  0 0 0 1 0"></feColorMatrix></filter></defs><mask v-gra="im" id="a0f03fa9-7654-4036-b724-4a89cd1188ee"><g class="iconsvg-imagesvg" filter="url(#5678a171-abcf-4145-bd4d-f762dfc74e78)"><g><rect fill="#a18cd1" fill-opacity="0" stroke-width="2" x="0" y="0" width="60" height="59.89159621085834" class="image-rect"></rect> <svg x="0" y="0" width="60" height="59.89159621085834" filtersec="colorsf6290310847" class="image-svg-svg primary" style="overflow: visible;"><svg xmlns="http://www.w3.org/2000/svg" viewBox="-0.6000000000000001 -0.6000000000000001 59.5 59.4"><path d="M36.4 21.8c4 4 4 10.5 0 14.5s-10.5 4-14.5 0-4-10.5 0-14.5m14.5 0L22.5 7.9 1.4 29.1l27.7 27.7 27.7-27.7L29.1 1.4m7.3 34.9c4-4 4-10.5 0-14.5s-10.5-4-14.5 0-4 10.5 0 14.5m0 0l13.9 13.9 21.1-21.1L29.2 1.4 1.4 29.1l27.7 27.7m-7.2-35L8 35.7m28.4.6l13.9-13.9" fill="none" stroke="#282828" stroke-width="2" stroke-miterlimit="10"></path></svg></svg> <defs><filter id="colors5052307975"><feColorMatrix type="matrix" values="0 0 0 0 0.62890625  0 0 0 0 0.546875  0 0 0 0 0.81640625  0 0 0 1 0" class="icon-fecolormatrix"></feColorMatrix></filter> <filter id="colorsf6290310847"><feColorMatrix type="matrix" values="0 0 0 0 0.99609375  0 0 0 0 0.99609375  0 0 0 0 0.99609375  0 0 0 1 0" class="icon-fecolormatrix"></feColorMatrix></filter> <filter id="colorsb7481030970"><feColorMatrix type="matrix" values="0 0 0 0 0  0 0 0 0 0  0 0 0 0 0  0 0 0 1 0" class="icon-fecolormatrix"></feColorMatrix></filter></defs></g></g></mask></svg>